<?xml version="1.0" encoding="UTF-8"?>
<!-- Generator: Adobe Illustrator 23.0.1, SVG Export Plug-In . SVG Version: 6.00 Build 0)  -->
<svg width="850px" height="850px" xmlns="http://www.w3.org/2000/svg" xmlns:xlink="http://www.w3.org/1999/xlink" id="Layer_1" x="0px" y="0px" viewBox="0 0 150 150" style="enable-background:new 0 0 150 150;" xml:space="preserve">
<style type="text/css">
	.st0{fill:#8DC340;}
	.st1{fill:#FFFFFF;}
</style>
<title>Medavie_Mission Vision Values_Icons</title>
<circle class="st0" cx="75" cy="75" r="75"></circle>
<path class="st1" d="M51.5,63.3c-1.1,0-2,0.9-2,1.9c0,1.1,0.9,2,1.9,2c1.1,0,2-0.9,2-1.9c0,0,0,0,0,0C53.5,64.1,52.6,63.3,51.5,63.3  C51.5,63.3,51.5,63.3,51.5,63.3z"></path>
<path class="st1" d="M77,37.8c0-1.1-0.9-1.9-2-1.9c-12.4-0.1-23.1,8.9-25.1,21.2c-0.2,1.1,0.6,2.1,1.6,2.2c1.1,0.2,2.1-0.6,2.2-1.6  l0,0c1.7-10.4,10.7-18,21.2-17.9C76.1,39.8,77,38.9,77,37.8C77,37.9,77,37.8,77,37.8z"></path>
<path class="st1" d="M59.4,104.3v7.9c0,5.4,4.4,9.8,9.8,9.8h11.7c5.4,0,9.8-4.4,9.8-9.8v-7.9c0-10.2,8.4-19.9,12.2-25.5  c3.4-4.7,5.3-10.2,5.4-16c0.2-18.9-14.6-34.6-32.9-34.7c-18.3-0.3-33.3,14.3-33.6,32.6c0,0,0,0,0,0.1c-0.2,11.9,7.1,20.4,7.4,21.1  c4.3,6.1,10.2,16.8,10.2,22.1C59.4,104,59.4,104.2,59.4,104.3L59.4,104.3z M80.9,118H69.1c-2.5,0-4.7-1.6-5.5-3.9h5.5  c1.1,0.1,2-0.7,2.1-1.8s-0.7-2-1.8-2.1c-0.1,0-0.2,0-0.3,0h-5.9v-3.9h23.5v3.9h-5.9c-1.1,0-1.9,0.9-2,1.9c0,1.1,0.9,1.9,1.9,2  c0,0,0,0,0,0h5.5C85.6,116.4,83.4,118,80.9,118z M51.6,78.2c-3.8-5.1-5.8-11.2-5.9-17.5C45.9,44.7,59,31.8,75,32c0,0,0,0,0,0h0.3  c16.2,0.2,29.2,14.1,29,30.8c-0.1,5-1.7,9.8-4.7,13.8c-3.7,5.5-11.9,15-12.8,25.8H63.2c-0.7-5.5-4.7-13.5-8.4-19.4  C53.2,80.6,52.3,79.3,51.6,78.2L51.6,78.2z"></path>
<path class="st1" d="M123.1,59.4h-9c-1.1-0.1-2,0.7-2.1,1.8c-0.1,1.1,0.7,2,1.8,2.1c0.1,0,0.2,0,0.3,0h9c1.1-0.1,1.9-1,1.8-2.1  C124.8,60.2,124.1,59.4,123.1,59.4z"></path>
<path class="st1" d="M25,61.3c0,1.1,0.9,2,1.9,2c0,0,0,0,0,0h9c1.1,0.1,2-0.7,2.1-1.8s-0.7-2-1.8-2.1c-0.1,0-0.2,0-0.3,0h-9  C25.8,59.4,25,60.2,25,61.3C25,61.3,25,61.3,25,61.3z"></path>
<path class="st1" d="M119.7,81.4c0.7,0.8,2,0.9,2.8,0.2c0.8-0.7,0.9-2,0.2-2.8c-0.1-0.1-0.1-0.1-0.2-0.2l-6.7-6.8  c-0.7-0.8-2-0.9-2.8-0.2c-0.8,0.7-0.9,2-0.2,2.8c0.1,0.1,0.1,0.1,0.2,0.2L119.7,81.4z"></path>
<path class="st1" d="M27.5,41.2c-0.8,0.8-0.8,2,0,2.8c0,0,0,0,0,0l6.8,6.8c0.9,0.6,2.1,0.5,2.7-0.4c0.5-0.7,0.5-1.7,0-2.4l-6.8-6.7  C29.5,40.5,28.2,40.5,27.5,41.2C27.5,41.3,27.5,41.3,27.5,41.2L27.5,41.2z"></path>
<path class="st1" d="M113,48c-0.8,0.8-0.8,2,0,2.8c0.8,0.8,2,0.8,2.8,0l0,0l6.7-6.8c0.8-0.8,0.8-2,0-2.8c-0.8-0.8-2-0.8-2.8,0  L113,48z"></path>
<path class="st1" d="M34.2,71.9l-6.8,6.8c-0.8,0.7-0.9,1.9-0.2,2.8c0.7,0.8,1.9,0.9,2.8,0.2c0.1-0.1,0.1-0.1,0.2-0.2l6.8-6.8  c0.8-0.7,0.9-1.9,0.2-2.8c-0.7-0.8-1.9-0.9-2.8-0.2C34.4,71.8,34.3,71.9,34.2,71.9z"></path>
</svg>
